<svg width="30" height="22" viewBox="0 0 30 22" fill="none" xmlns="http://www.w3.org/2000/svg">
<path d="M25.1645 1.82566C23.2947 0.982426 21.2905 0.359167 19.1946 0.004765C19.176 0.00118177 19.1566 0.00349093 19.1393 0.0113732C19.122 0.0192554 19.1076 0.0323208 19.0981 0.0487598C18.8414 0.499706 18.5555 1.08752 18.3551 1.55191C16.1322 1.2198 13.8724 1.2198 11.6495 1.55191C11.4263 1.03725 11.1746 0.53542 10.8955 0.0487598C10.8861 0.0321184 10.8717 0.0187575 10.8545 0.01046C10.8372 0.00216258 10.8179 -0.000676886 10.799 0.00232073C8.70433 0.356723 6.70012 0.979982 4.82912 1.82444C4.81303 1.83119 4.79938 1.8427 4.79002 1.85743C0.986915 7.44843 -0.0555161 12.9013 0.456534 18.2858C0.457959 18.299 0.462052 18.3118 0.468565 18.3233C0.475078 18.3349 0.483874 18.345 0.494418 18.353C2.71419 19.9691 5.19005 21.2002 7.81832 21.9948C7.83664 22.0004 7.85624 22.0004 7.87455 21.9948C7.89287 21.9891 7.90904 21.978 7.92098 21.963C8.48557 21.2053 8.98907 20.4049 9.41924 19.5641C9.44491 19.5152 9.42046 19.4566 9.36914 19.437C8.57968 19.1397 7.81476 18.7809 7.08141 18.364C7.06823 18.3565 7.05713 18.3458 7.04909 18.3329C7.04106 18.3201 7.03635 18.3054 7.03538 18.2903C7.03441 18.2751 7.03721 18.26 7.04354 18.2462C7.04987 18.2324 7.05952 18.2204 7.07163 18.2113C7.22561 18.0976 7.3796 17.9791 7.52625 17.8605C7.53945 17.8499 7.55535 17.8431 7.57218 17.8409C7.58901 17.8388 7.6061 17.8413 7.62157 17.8483C12.4207 20.004 17.6182 20.004 22.361 17.8483C22.3765 17.8409 22.3938 17.838 22.4109 17.84C22.4279 17.8419 22.4441 17.8486 22.4576 17.8593C22.6042 17.9791 22.757 18.0976 22.9122 18.2113C22.9244 18.2202 22.9342 18.232 22.9408 18.2457C22.9473 18.2594 22.9503 18.2745 22.9496 18.2896C22.9489 18.3047 22.9444 18.3195 22.9366 18.3324C22.9288 18.3454 22.9179 18.3563 22.9049 18.364C22.1741 18.7844 21.4139 19.14 20.6159 19.4358C20.6036 19.4402 20.5925 19.4472 20.5832 19.4563C20.5738 19.4655 20.5665 19.4764 20.5618 19.4886C20.5571 19.5007 20.555 19.5138 20.5557 19.5268C20.5563 19.5398 20.5598 19.5525 20.5658 19.5641C21.0057 20.4037 21.5092 21.2029 22.0628 21.9618C22.0744 21.9774 22.0904 21.989 22.1088 21.9951C22.1271 22.0013 22.1469 22.0016 22.1655 21.996C24.7983 21.2037 27.2782 19.972 29.5004 18.353C29.5112 18.3454 29.5203 18.3356 29.5271 18.3242C29.5338 18.3129 29.5381 18.3002 29.5395 18.287C30.1505 12.0618 28.5154 6.65286 25.2024 1.85988C25.1942 1.8443 25.1808 1.83216 25.1645 1.82566ZM10.1366 15.007C8.69211 15.007 7.50058 13.7006 7.50058 12.0984C7.50058 10.4951 8.66889 9.18989 10.1366 9.18989C11.6153 9.18989 12.7958 10.5061 12.7726 12.0984C12.7726 13.7018 11.6043 15.007 10.1366 15.007V15.007ZM19.8827 15.007C18.4369 15.007 17.2466 13.7006 17.2466 12.0984C17.2466 10.4951 18.4137 9.18989 19.8827 9.18989C21.3614 9.18989 22.5419 10.5061 22.5187 12.0984C22.5187 13.7018 21.3626 15.007 19.8827 15.007V15.007Z" fill="#2BA24C"/>
</svg>
