<svg width="1019" height="126" viewBox="0 0 1019 126" fill="none" xmlns="http://www.w3.org/2000/svg">
<g clip-path="url(#clip0)">
<path d="M159.282 48.6899C155.825 46.7286 152.964 43.8673 151.002 40.4099C148.982 36.8599 147.946 32.8344 148.002 28.7499C147.944 24.6653 148.98 20.6395 151.002 17.0899C152.961 13.6308 155.823 10.7689 159.282 8.80995C162.761 6.81041 166.71 5.77482 170.722 5.80995C173.845 5.78801 176.942 6.37214 179.842 7.52995C182.526 8.57096 184.925 10.233 186.842 12.3799L183.102 16.1199C181.678 14.3559 179.83 12.98 177.732 12.1199C175.514 11.1975 173.134 10.7283 170.732 10.7399C167.709 10.7342 164.735 11.5129 162.102 12.9999C159.424 14.4908 157.199 16.678 155.662 19.3299C154.005 22.1884 153.165 25.4467 153.232 28.7499C153.165 32.0532 154.005 35.3115 155.662 38.1699C157.202 40.8167 159.427 42.9998 162.102 44.4899C164.543 45.7972 167.242 46.5518 170.007 46.7004C172.772 46.8491 175.535 46.388 178.102 45.3499C180.038 44.4608 181.794 43.2236 183.282 41.6999C184.39 40.4754 185.264 39.0588 185.862 37.5199C186.531 35.8131 186.923 34.0104 187.022 32.1799H170.822V27.3399H191.932C192.132 28.3917 192.236 29.4594 192.242 30.5299C192.246 33.2095 191.81 35.8715 190.952 38.4099C190.114 40.9347 188.708 43.2336 186.842 45.1299C182.722 49.5099 177.349 51.6999 170.722 51.6999C166.71 51.7272 162.762 50.6885 159.282 48.6899Z" fill="#656C73"/>
<path d="M203.732 49.58C201.378 48.1883 199.456 46.1699 198.182 43.7499C196.833 41.2115 196.146 38.3742 196.182 35.4999C196.146 32.6257 196.833 29.7884 198.182 27.2499C199.456 24.83 201.378 22.8116 203.732 21.4199C206.189 20.03 208.964 19.2996 211.787 19.2996C214.61 19.2996 217.385 20.03 219.842 21.4199C222.209 22.8047 224.142 24.8241 225.422 27.2499C226.771 29.7884 227.459 32.6257 227.422 35.4999C227.459 38.3742 226.771 41.2115 225.422 43.7499C224.142 46.1758 222.209 48.1952 219.842 49.58C217.385 50.9699 214.61 51.7003 211.787 51.7003C208.964 51.7003 206.189 50.9699 203.732 49.58ZM216.922 45.58C218.543 44.6215 219.871 43.2383 220.762 41.58C221.744 39.7349 222.24 37.6699 222.202 35.58C222.247 33.4734 221.751 31.3904 220.762 29.5299C219.869 27.8728 218.541 26.49 216.922 25.5299C215.38 24.5536 213.597 24.0239 211.772 23.9999C209.968 23.9986 208.2 24.497 206.662 25.4399C205.043 26.4 203.715 27.7828 202.822 29.4399C201.833 31.3004 201.337 33.3834 201.382 35.49C201.344 37.5799 201.84 39.6449 202.822 41.49C203.714 43.1483 205.041 44.5315 206.662 45.49C208.194 46.4532 209.962 46.9756 211.772 46.9999C213.588 46.9964 215.368 46.4986 216.922 45.5599V45.58Z" fill="#656C73"/>
<path d="M238.522 49.58C236.168 48.1883 234.246 46.1699 232.972 43.7499C231.623 41.2115 230.936 38.3742 230.972 35.4999C230.936 32.6257 231.623 29.7884 232.972 27.2499C234.246 24.83 236.168 22.8116 238.522 21.4199C240.979 20.03 243.754 19.2996 246.577 19.2996C249.4 19.2996 252.175 20.03 254.632 21.4199C257 22.8047 258.932 24.8241 260.212 27.2499C261.561 29.7884 262.249 32.6257 262.212 35.4999C262.249 38.3742 261.561 41.2115 260.212 43.7499C258.941 46.1718 257.018 48.1908 254.662 49.58C252.205 50.9699 249.43 51.7003 246.607 51.7003C243.784 51.7003 241.009 50.9699 238.552 49.58H238.522ZM251.722 45.58C253.337 44.6181 254.661 43.2355 255.552 41.58C256.535 39.7349 257.03 37.6699 256.992 35.58C257.037 33.4734 256.541 31.3904 255.552 29.5299C254.66 27.8756 253.336 26.4934 251.722 25.5299C250.176 24.5547 248.39 24.0252 246.562 23.9999C244.767 23.9978 243.007 24.489 241.472 25.4199C239.853 26.38 238.525 27.7628 237.632 29.4199C236.643 31.2804 236.147 33.3634 236.192 35.4699C236.154 37.5599 236.65 39.6249 237.632 41.4699C238.524 43.1283 239.851 44.5115 241.472 45.4699C242.997 46.4358 244.757 46.965 246.562 46.9999C248.381 46.9982 250.165 46.5003 251.722 45.5599V45.58Z" fill="#656C73"/>
<path d="M271.842 62.31C269.688 60.7876 268.044 58.6513 267.122 56.18L271.962 54.18C272.562 55.9569 273.715 57.4951 275.252 58.57C276.895 59.716 278.86 60.308 280.862 60.26C284.096 60.26 286.582 59.32 288.322 57.44C290.062 55.57 290.922 52.95 290.922 49.58V46.3H290.662C289.6 47.9228 288.145 49.2506 286.432 50.16C284.514 51.2062 282.357 51.7368 280.172 51.7C277.626 51.7093 275.132 50.9798 272.992 49.6C270.75 48.1719 268.928 46.1737 267.712 43.81C266.365 41.2494 265.678 38.3932 265.712 35.5C265.679 32.6038 266.366 29.7447 267.712 27.18C268.932 24.8187 270.753 22.8214 272.992 21.39C275.135 20.0174 277.628 19.2917 280.172 19.3C282.356 19.2647 284.511 19.7915 286.432 20.83C288.146 21.7429 289.601 23.0742 290.662 24.7H290.902V20.28H295.902V49.49C295.983 52.4583 295.294 55.3968 293.902 58.02C292.684 60.2627 290.811 62.0802 288.532 63.23C286.152 64.4187 283.523 65.0254 280.862 65C277.641 65.126 274.468 64.1799 271.842 62.31ZM285.952 45.58C287.515 44.6068 288.781 43.2232 289.612 41.58C290.566 39.6876 291.037 37.5885 290.982 35.47C291.046 33.3563 290.593 31.259 289.662 29.36C288.841 27.7099 287.573 26.3239 286.002 25.36C284.493 24.4545 282.762 23.9839 281.002 24C279.238 23.9855 277.506 24.4672 276.002 25.39C274.445 26.3678 273.184 27.7505 272.352 29.39C271.394 31.2811 270.919 33.3805 270.972 35.5C270.921 37.6194 271.395 39.7185 272.352 41.61C273.183 43.2504 274.444 44.6334 276.002 45.61C277.501 46.5193 279.22 47 280.972 47C282.725 47 284.444 46.5193 285.942 45.61L285.952 45.58Z" fill="#656C73"/>
<path d="M302.952 6.78003H308.162V50.71H302.952V6.78003Z" fill="#656C73"/>
<path d="M320.532 49.6101C318.225 48.2244 316.345 46.2275 315.102 43.8401C313.75 41.2704 313.063 38.4034 313.102 35.5001C313.074 32.6826 313.708 29.8979 314.952 27.3701C316.116 24.957 317.931 22.9169 320.192 21.4801C322.535 20.0076 325.256 19.2501 328.022 19.3001C330.743 19.2436 333.427 19.9354 335.782 21.3001C338.007 22.6261 339.789 24.5818 340.902 26.9201C342.133 29.5247 342.743 32.3797 342.682 35.2601C342.7 35.6737 342.66 36.0877 342.562 36.4901H318.412C318.43 38.5381 319.004 40.5427 320.072 42.2901C321.012 43.7866 322.334 45.0052 323.902 45.8201C325.374 46.5833 327.005 46.9876 328.662 47.0001C332.516 47.0001 335.482 45.1201 337.562 41.3601L342.162 43.5701C340.89 45.9767 339.02 48.0154 336.732 49.4901C334.281 50.9309 331.495 51.7031 328.652 51.7294C325.809 51.7557 323.009 51.0353 320.532 49.6401V49.6101ZM337.192 32.1201C337.106 30.8393 336.766 29.5885 336.192 28.4401C335.502 27.1383 334.464 26.0545 333.192 25.3101C331.596 24.3816 329.768 23.9272 327.922 24.0001C325.732 23.9651 323.608 24.7538 321.972 26.2101C320.263 27.7483 319.137 29.8284 318.782 32.1001L337.192 32.1201Z" fill="#656C73"/>
<path d="M362.662 6.77992H375.982C380.083 6.68445 384.14 7.64522 387.762 9.56992C391.037 11.3571 393.722 14.0563 395.492 17.3399C397.342 20.8539 398.271 24.7795 398.192 28.7499C398.27 32.7202 397.341 36.6455 395.492 40.1599C393.721 43.4405 391.036 46.1363 387.762 47.9199C384.14 49.8446 380.083 50.8054 375.982 50.7099H362.662V6.77992ZM375.982 45.7799C381.175 45.7799 385.285 44.2899 388.312 41.3099C391.339 38.3299 392.852 34.1566 392.852 28.7899C392.852 23.4566 391.339 19.2833 388.312 16.2699C385.285 13.2566 381.175 11.7633 375.982 11.7899H367.882V45.7899L375.982 45.7799Z" fill="#656C73"/>
<path d="M409.992 49.6101C407.685 48.2244 405.805 46.2275 404.562 43.8401C403.21 41.2704 402.523 38.4034 402.562 35.5001C402.531 32.6834 403.161 29.8988 404.402 27.3701C405.571 24.9544 407.394 22.9141 409.662 21.4801C412.005 20.0076 414.726 19.2501 417.492 19.3001C420.213 19.2436 422.897 19.9354 425.252 21.3001C427.477 22.6261 429.259 24.5818 430.372 26.9201C431.603 29.5247 432.213 32.3797 432.152 35.2601C432.17 35.6737 432.13 36.0877 432.032 36.4901H407.872C407.885 38.5388 408.459 40.5448 409.532 42.2901C410.472 43.7866 411.794 45.0052 413.362 45.8201C414.834 46.5833 416.465 46.9876 418.122 47.0001C421.962 47.0001 424.929 45.1201 427.022 41.3601L431.622 43.5701C430.35 45.9767 428.48 48.0154 426.192 49.4901C423.741 50.9309 420.955 51.7031 418.112 51.7294C415.269 51.7557 412.469 51.0353 409.992 49.6401V49.6101ZM426.662 32.1201C426.559 30.836 426.203 29.5851 425.612 28.4401C424.926 27.1355 423.886 26.0507 422.612 25.3101C421.027 24.389 419.214 23.9348 417.382 24.0001C415.175 23.9525 413.031 24.742 411.382 26.2101C409.673 27.7483 408.547 29.8284 408.192 32.1001L426.662 32.1201Z" fill="#656C73"/>
<path d="M433.402 20.28H439.042L448.372 44.58H448.492L457.942 20.28H463.462L451.012 50.71H445.732L433.402 20.28Z" fill="#656C73"/>
<path d="M473.003 49.61C470.695 48.2243 468.816 46.2273 467.573 43.84C466.225 41.2686 465.538 38.4027 465.573 35.5C465.541 32.6833 466.172 29.8987 467.413 27.37C468.583 24.9582 470.401 22.919 472.663 21.48C475.002 20.0088 477.719 19.2513 480.483 19.3C483.204 19.2424 485.888 19.9343 488.243 21.3C490.47 22.6254 492.255 24.581 493.373 26.92C494.599 29.5262 495.208 32.3801 495.153 35.2599C495.168 35.6741 495.125 36.0883 495.023 36.49H470.893C470.902 38.5377 471.473 40.5436 472.543 42.29C473.488 43.7856 474.813 45.0037 476.383 45.82C477.85 46.583 479.478 46.9874 481.133 47C484.979 47 487.946 45.12 490.033 41.36L494.633 43.57C493.361 45.9766 491.491 48.0153 489.203 49.49C486.752 50.9308 483.965 51.703 481.123 51.7293C478.28 51.7556 475.48 51.0351 473.003 49.64V49.61ZM489.663 32.12C489.581 30.8384 489.241 29.5866 488.663 28.44C487.976 27.136 486.936 26.0514 485.663 25.31C484.07 24.3818 482.245 23.9273 480.403 24C478.212 23.963 476.088 24.752 474.453 26.21C472.744 27.7482 471.617 29.8283 471.263 32.0999L489.663 32.12Z" fill="#656C73"/>
<path d="M500.463 6.78003H505.663V50.71H500.463V6.78003Z" fill="#656C73"/>
<path d="M518.193 49.58C515.846 48.1854 513.931 46.1673 512.663 43.7499C511.314 41.2115 510.626 38.3742 510.663 35.4999C510.626 32.6257 511.314 29.7884 512.663 27.2499C513.937 24.83 515.858 22.8116 518.213 21.4199C520.67 20.03 523.445 19.2996 526.267 19.2996C529.09 19.2996 531.865 20.03 534.322 21.4199C536.69 22.8047 538.623 24.8241 539.903 27.2499C541.251 29.7884 541.939 32.6257 541.903 35.4999C541.939 38.3742 541.251 41.2115 539.903 43.7499C538.623 46.1758 536.69 48.1952 534.322 49.58C531.865 50.9699 529.09 51.7003 526.267 51.7003C523.445 51.7003 520.67 50.9699 518.213 49.58H518.193ZM531.392 45.58C533.008 44.6181 534.332 43.2355 535.223 41.58C536.205 39.7349 536.701 37.6699 536.663 35.58C536.707 33.4734 536.212 31.3904 535.223 29.5299C534.33 27.8756 533.007 26.4934 531.392 25.5299C529.846 24.5547 528.061 24.0252 526.233 23.9999C524.438 23.9978 522.677 24.489 521.142 25.4199C519.524 26.3778 518.199 27.7614 517.313 29.4199C516.316 31.2779 515.816 33.362 515.863 35.4699C515.823 37.5612 516.322 39.6275 517.313 41.4699C518.198 43.1297 519.523 44.5137 521.142 45.4699C522.667 46.4358 524.428 46.965 526.233 46.9999C528.051 46.9982 529.835 46.5003 531.392 45.5599V45.58Z" fill="#656C73"/>
<path d="M546.662 20.2801H551.662V24.7601H551.902C552.968 23.1302 554.421 21.7901 556.132 20.8601C558.09 19.7919 560.293 19.2541 562.522 19.3001C565.057 19.2999 567.538 20.0364 569.662 21.4201C571.897 22.8569 573.717 24.8529 574.942 27.2101C576.288 29.764 576.976 32.6134 576.942 35.5001C576.977 38.3837 576.289 41.2302 574.942 43.7801C573.72 46.142 571.899 48.142 569.662 49.5801C567.51 50.9763 564.997 51.7132 562.432 51.7001C560.192 51.7464 557.978 51.2051 556.012 50.1301C554.276 49.2013 552.824 47.8189 551.812 46.1301H551.572L551.812 50.3701V64.0001H546.662V20.2801ZM566.662 45.5601C568.229 44.5849 569.501 43.2023 570.342 41.5601C571.286 39.7033 571.76 37.6429 571.722 35.5601C571.767 33.4606 571.293 31.3825 570.342 29.5101C569.499 27.869 568.227 26.4868 566.662 25.5101C565.173 24.541 563.439 24.0171 561.662 24.0001C559.9 23.9889 558.169 24.4666 556.662 25.3801C555.083 26.3429 553.805 27.7285 552.972 29.3801C552.024 31.2747 551.554 33.3722 551.602 35.4901C551.561 37.5945 552.031 39.6775 552.972 41.5601C553.803 43.2129 555.082 44.5989 556.662 45.5601C558.163 46.4946 559.894 46.9932 561.662 47.0001C563.431 46.9996 565.164 46.5005 566.662 45.5601Z" fill="#656C73"/>
<path d="M589.092 49.6099C586.785 48.2243 584.905 46.2273 583.662 43.8399C582.315 41.2685 581.628 38.4027 581.662 35.4999C581.631 32.6833 582.261 29.8986 583.502 27.3699C584.673 24.9582 586.491 22.919 588.752 21.4799C591.118 19.9918 593.869 19.2336 596.662 19.2999C599.384 19.2423 602.068 19.9342 604.422 21.2999C606.65 22.6253 608.435 24.5809 609.552 26.9199C610.779 29.5262 611.388 32.3801 611.332 35.2599C611.348 35.674 611.304 36.0883 611.202 36.4899H586.982C586.992 38.5377 587.563 40.5436 588.632 42.2899C589.578 43.7856 590.903 45.0037 592.472 45.8199C593.94 46.583 595.568 46.9874 597.222 46.9999C601.076 46.9999 604.042 45.1199 606.122 41.3599L610.722 43.5699C609.45 45.9765 607.58 48.0153 605.292 49.4899C602.842 50.9307 600.055 51.7029 597.212 51.7292C594.37 51.7556 591.57 51.0351 589.092 49.6399V49.6099ZM605.752 32.1199C605.671 30.8383 605.331 29.5866 604.752 28.4399C604.066 27.136 603.026 26.0514 601.752 25.3099C600.159 24.3817 598.335 23.9273 596.492 23.9999C594.285 23.9503 592.14 24.7401 590.492 26.2099C588.784 27.7481 587.657 29.8282 587.302 32.0999L605.752 32.1199Z" fill="#656C73"/>
<path d="M616.553 20.28H621.553V25.28H621.803C622.435 23.4919 623.668 21.979 625.293 21C626.857 19.9215 628.703 19.3236 630.603 19.28C631.816 19.2682 633.022 19.4749 634.163 19.89V25.5C632.835 24.8327 631.358 24.516 629.873 24.58C628.442 24.5814 627.046 25.0211 625.873 25.84C624.605 26.6848 623.573 27.8375 622.873 29.19C622.133 30.5916 621.755 32.1555 621.773 33.74V50.74H616.553V20.28Z" fill="#656C73"/>
<path d="M657.022 50.3199C654.934 49.3975 653.071 48.0327 651.562 46.3199C649.94 44.4526 648.773 42.2345 648.152 39.8399L653.152 37.8399C653.773 40.324 655.12 42.5664 657.022 44.2799C658.809 45.9232 661.155 46.8242 663.582 46.7999C665.924 46.8751 668.22 46.1483 670.092 44.7399C670.947 44.0707 671.627 43.2045 672.075 42.2155C672.522 41.2264 672.724 40.1438 672.662 39.0599C672.689 38.1068 672.506 37.1594 672.126 36.2849C671.746 35.4105 671.178 34.6304 670.462 33.9999C668.27 32.3141 665.78 31.0556 663.122 30.2899L660.362 29.2899C657.559 28.3621 654.971 26.8793 652.752 24.9299C651.753 23.9681 650.973 22.8018 650.466 21.5109C649.958 20.22 649.735 18.8348 649.812 17.4499C649.803 15.3895 650.401 13.3719 651.532 11.6499C652.713 9.83622 654.351 8.36662 656.282 7.38994C658.396 6.3017 660.745 5.75211 663.122 5.78994C665.422 5.73788 667.701 6.22056 669.782 7.19994C671.519 8.0179 673.065 9.1896 674.322 10.6399C675.345 11.8085 676.127 13.1679 676.622 14.6399L671.772 16.7199C671.223 14.918 670.084 13.3524 668.54 12.2737C666.995 11.1951 665.133 10.6656 663.252 10.7699C661.167 10.7154 659.127 11.387 657.482 12.6699C656.733 13.2217 656.125 13.9438 655.71 14.7766C655.294 15.6095 655.082 16.5292 655.092 17.4599C655.071 18.2681 655.241 19.0698 655.589 19.7997C655.936 20.5296 656.452 21.167 657.092 21.6599C658.958 22.9943 661.033 24.0082 663.232 24.6599L666.052 25.6599C669.285 26.7224 672.261 28.4456 674.792 30.7199C675.872 31.8008 676.713 33.0963 677.261 34.5225C677.809 35.9488 678.051 37.4741 677.972 38.9999C678.061 41.547 677.293 44.0503 675.792 46.1099C674.389 48.0028 672.489 49.4702 670.302 50.3499C668.123 51.2453 665.789 51.7039 663.432 51.6999C661.222 51.7002 659.037 51.2297 657.022 50.3199Z" fill="#656C73"/>
<path d="M690.662 51.07C689.672 50.6832 688.765 50.1095 687.992 49.38C687.184 48.604 686.565 47.6529 686.182 46.5999C685.77 45.3835 685.573 44.1041 685.602 42.82V25H680.202V20.28H685.602V11.2H690.752V20.28H698.242V25H690.752V41.58C690.629 42.953 690.982 44.3267 691.752 45.47C692.133 45.941 692.621 46.3127 693.177 46.553C693.733 46.7934 694.338 46.8953 694.942 46.8499C696.104 46.8766 697.25 46.5788 698.252 45.99V50.99C697.648 51.2248 697.021 51.399 696.382 51.5099C695.602 51.6321 694.812 51.6856 694.022 51.6699C692.874 51.6861 691.734 51.4824 690.662 51.07Z" fill="#656C73"/>
<path d="M706.353 48.44C704.413 46.28 703.433 43.27 703.433 39.44V20.28H708.663V38.57C708.663 44.17 711.179 46.97 716.213 46.97C717.827 46.9884 719.406 46.4948 720.723 45.56C722.046 44.6206 723.1 43.3521 723.783 41.88C724.499 40.3851 724.868 38.7477 724.863 37.09V20.28H730.013V50.71H725.103V46.17H724.863C723.873 47.8173 722.466 49.1733 720.783 50.1C719.008 51.1499 716.984 51.7025 714.923 51.7C711.153 51.7 708.293 50.61 706.353 48.44Z" fill="#656C73"/>
<path d="M742.272 49.61C740.032 48.1778 738.214 46.1762 737.002 43.81C735.657 41.2485 734.97 38.3929 735.002 35.5C734.971 32.6041 735.658 29.7456 737.002 27.18C738.215 24.8175 740.034 22.8195 742.272 21.39C744.433 20.0084 746.947 19.2824 749.512 19.3C751.741 19.2637 753.941 19.8009 755.902 20.86C757.629 21.7676 759.087 23.1124 760.132 24.76H760.382L760.132 20.59V6.78003H765.292V50.71H760.382V46.17H760.132C759.114 47.8645 757.651 49.2478 755.902 50.17C753.944 51.2369 751.742 51.7779 749.512 51.74C746.944 51.7406 744.43 51.0011 742.272 49.61ZM755.272 45.61C756.85 44.6482 758.125 43.2621 758.952 41.61C759.904 39.7304 760.381 37.6465 760.342 35.54C760.388 33.4201 759.91 31.3215 758.952 29.43C758.123 27.7792 756.848 26.3935 755.272 25.43C753.765 24.5166 752.034 24.0389 750.272 24.05C748.504 24.0402 746.771 24.5326 745.272 25.47C743.707 26.4468 742.435 27.829 741.592 29.47C740.641 31.3424 740.167 33.4205 740.212 35.52C740.174 37.6029 740.648 39.6632 741.592 41.52C742.433 43.1622 743.705 44.5449 745.272 45.52C746.773 46.4499 748.506 46.9385 750.272 46.93C752.044 46.9607 753.789 46.4966 755.312 45.59L755.272 45.61Z" fill="#656C73"/>
<path d="M777.713 49.6101C775.405 48.2244 773.526 46.2275 772.283 43.8401C770.931 41.2704 770.244 38.4034 770.283 35.5001C770.252 32.6834 770.882 29.8988 772.123 27.3701C773.287 24.957 775.102 22.9169 777.363 21.4801C779.705 20.0076 782.426 19.2501 785.193 19.3001C787.914 19.2436 790.598 19.9354 792.953 21.3001C795.178 22.6261 796.959 24.5818 798.073 26.9201C799.304 29.5247 799.913 32.3797 799.853 35.2601C799.871 35.6737 799.83 36.0877 799.733 36.4901H775.593C775.611 38.5381 776.185 40.5427 777.253 42.2901C778.193 43.7866 779.515 45.0052 781.083 45.8201C782.554 46.5833 784.185 46.9876 785.843 47.0001C789.69 47.0001 792.656 45.1201 794.743 41.3601L799.343 43.5701C798.071 45.9767 796.201 48.0154 793.913 49.4901C791.462 50.9309 788.676 51.7031 785.833 51.7294C782.99 51.7557 780.19 51.0353 777.713 49.6401V49.6101ZM794.373 32.1201C794.286 30.8393 793.946 29.5885 793.373 28.4401C792.683 27.1383 791.644 26.0545 790.373 25.3101C788.776 24.3816 786.948 23.9272 785.103 24.0001C782.895 23.9525 780.752 24.742 779.103 26.2101C777.394 27.7483 776.267 29.8284 775.913 32.1001L794.373 32.1201Z" fill="#656C73"/>
<path d="M805.172 20.2798H810.172V24.8198H810.412C811.365 23.1717 812.747 21.8134 814.412 20.8898C816.199 19.8451 818.232 19.2962 820.302 19.2998C824.022 19.2998 826.862 20.3798 828.802 22.5498C830.742 24.7198 831.712 27.6898 831.712 31.4498V50.7098H826.562V32.2498C826.562 26.7632 824.005 24.0198 818.892 24.0198C817.304 24.0018 815.752 24.5001 814.472 25.4398C813.169 26.3849 812.135 27.6533 811.472 29.1198C810.757 30.6117 810.388 32.2456 810.392 33.8998V50.7098H805.182L805.172 20.2798Z" fill="#656C73"/>
<path d="M845.332 51.07C844.34 50.6881 843.432 50.1137 842.662 49.38C841.854 48.604 841.235 47.6529 840.852 46.5999C840.436 45.3841 840.237 44.1047 840.262 42.82V25H834.862V20.28H840.262V11.2H845.422V20.28H852.902V25H845.422V41.58C845.305 42.9525 845.657 44.3243 846.422 45.47C846.808 45.9477 847.305 46.3233 847.87 46.5639C848.435 46.8046 849.051 46.9028 849.662 46.8499C850.82 46.8778 851.962 46.5835 852.962 46V51C852.358 51.2361 851.732 51.4103 851.092 51.52C850.312 51.6421 849.522 51.6956 848.732 51.68C847.57 51.6981 846.416 51.4909 845.332 51.07Z" fill="#656C73"/>
<path d="M880.822 48.69C877.398 46.726 874.576 43.8626 872.662 40.41C870.658 36.8535 869.623 32.8324 869.662 28.75C869.622 24.6674 870.656 20.646 872.662 17.09C874.581 13.6313 877.415 10.7669 880.852 8.81002C884.362 6.79684 888.347 5.76091 892.392 5.81002C895.492 5.77503 898.563 6.41304 901.392 7.68002C904.085 8.91751 906.475 10.73 908.392 12.99L904.712 16.61C903.242 14.7384 901.365 13.2267 899.222 12.19C897.053 11.221 894.698 10.7397 892.322 10.78C889.292 10.7605 886.309 11.5253 883.662 13C881.009 14.4882 878.813 16.6737 877.312 19.32C875.701 22.194 874.887 25.4459 874.952 28.74C874.887 32.0341 875.701 35.286 877.312 38.16C878.814 40.8079 881.01 42.9963 883.662 44.49C886.325 45.9818 889.33 46.7538 892.382 46.73C895.002 46.7405 897.59 46.1543 899.95 45.016C902.31 43.8777 904.38 42.217 906.002 40.16L909.742 43.84C907.704 46.2868 905.145 48.2478 902.252 49.58C898.862 51.1151 895.16 51.8342 891.442 51.6797C887.723 51.5251 884.093 50.5012 880.842 48.69H880.822Z" fill="#656C73"/>
<path d="M914.812 6.78003H920.032V50.71H914.812V6.78003Z" fill="#656C73"/>
<path d="M929.662 48.44C927.722 46.28 926.752 43.28 926.752 39.44V20.28H931.962V38.57C931.962 44.17 934.479 46.97 939.512 46.97C941.127 46.9898 942.706 46.4961 944.022 45.56C945.348 44.6213 946.406 43.3528 947.092 41.88C947.805 40.3843 948.171 38.7469 948.162 37.09V20.28H953.322V50.71H948.412V46.17H948.162C947.173 47.8173 945.765 49.1733 944.082 50.1C942.308 51.1512 940.284 51.704 938.222 51.7C934.515 51.7 931.662 50.6134 929.662 48.44Z" fill="#656C73"/>
<path d="M969.822 50.13C968.086 49.2013 966.634 47.8188 965.622 46.13H965.372V50.67H960.372V6.78003H965.662V20.59L965.412 24.76H965.662C966.728 23.1301 968.181 21.7901 969.892 20.86C971.846 19.7918 974.046 19.2539 976.272 19.3C978.841 19.2821 981.359 20.0193 983.512 21.42C985.747 22.8568 987.567 24.8528 988.792 27.21C990.138 29.7639 990.825 32.6133 990.792 35.5C990.827 38.3837 990.139 41.2302 988.792 43.78C987.57 46.142 985.749 48.1419 983.512 49.58C981.357 50.9765 978.84 51.7133 976.272 51.7C974.021 51.7521 971.797 51.2106 969.822 50.13ZM980.442 45.56C982.009 44.5849 983.281 43.2022 984.122 41.56C985.066 39.7032 985.54 37.6429 985.502 35.56C985.547 33.4605 985.073 31.3824 984.122 29.51C983.279 27.869 982.007 26.4868 980.442 25.51C978.943 24.5741 977.209 24.0818 975.442 24.09C973.68 24.082 971.95 24.5595 970.442 25.47C968.87 26.438 967.596 27.8225 966.762 29.47C965.807 31.3624 965.333 33.4609 965.382 35.58C965.34 37.6857 965.813 39.7697 966.762 41.65C967.592 43.3 968.867 44.6853 970.442 45.65C971.95 46.5606 973.68 47.038 975.442 47.03C977.214 47.0189 978.946 46.5095 980.442 45.56Z" fill="#656C73"/>
<path d="M998.202 49.24C996.053 47.7389 994.408 45.623 993.482 43.17L998.082 41.17C998.782 42.948 999.984 44.4838 1001.54 45.59C1002.97 46.5894 1004.68 47.1237 1006.42 47.12C1008.14 47.1908 1009.84 46.7449 1011.3 45.84C1011.87 45.5294 1012.34 45.0779 1012.68 44.5293C1013.02 43.9808 1013.21 43.354 1013.23 42.71C1013.25 42.1315 1013.13 41.5575 1012.88 41.0358C1012.62 40.5141 1012.25 40.0595 1011.79 39.71C1010.3 38.7116 1008.62 38.0308 1006.85 37.71L1002.66 36.66C1000.5 36.1936 998.491 35.2047 996.802 33.78C996.008 33.1024 995.378 32.2538 994.959 31.2977C994.54 30.3417 994.343 29.3031 994.382 28.26C994.34 26.5038 994.913 24.7882 996.002 23.41C997.146 22.0185 998.641 20.9585 1000.33 20.34C1002.22 19.6468 1004.21 19.3078 1006.22 19.34C1008.72 19.3096 1011.19 19.9336 1013.37 21.15C1015.44 22.2756 1017.06 24.0854 1017.94 26.27L1013.34 28.27C1012.75 26.8683 1011.69 25.7159 1010.34 25.01C1008.96 24.3206 1007.43 23.9774 1005.89 24.01C1004.37 23.9897 1002.88 24.395 1001.57 25.18C1001 25.4535 1000.52 25.8782 1000.18 26.4075C999.839 26.9367 999.649 27.55 999.632 28.18C999.615 28.6719 999.721 29.1604 999.941 29.6007C1000.16 30.041 1000.49 30.419 1000.89 30.7C1002.12 31.48 1003.47 32.0417 1004.89 32.36L1009.43 33.46C1011.97 33.9752 1014.31 35.1754 1016.21 36.93C1016.93 37.6483 1017.51 38.5044 1017.89 39.4475C1018.27 40.3906 1018.47 41.4015 1018.45 42.42C1018.47 44.1362 1017.93 45.812 1016.92 47.2C1015.82 48.6946 1014.33 49.8627 1012.62 50.58C1010.65 51.427 1008.51 51.8462 1006.36 51.81C1003.44 51.8548 1000.57 50.9534 998.202 49.24Z" fill="#656C73"/>
<path d="M28.8401 29.4199L48.5001 18.0599C50.7226 16.7776 52.3447 14.6649 53.0095 12.1866C53.6743 9.70834 53.3274 7.06746 52.0451 4.84494C50.7628 2.62243 48.6501 1.00034 46.1718 0.335529C43.6935 -0.329288 41.0526 0.0176229 38.8301 1.29994L4.83008 20.9199L28.8401 29.4199Z" fill="#EA4335"/>
<path d="M43.6597 58.5999C45.7896 58.5987 47.8596 57.8951 49.5491 56.5981C51.2385 55.301 52.453 53.483 53.0043 51.4257C53.5557 49.3684 53.4131 47.1867 52.5987 45.2186C51.7843 43.2506 50.3436 41.6061 48.4997 40.5399L14.4997 20.9199C12.2853 19.7587 9.70737 19.4994 7.30603 20.1964C4.90469 20.8934 2.8662 22.4925 1.61757 24.6589C0.368936 26.8253 0.00703293 29.3908 0.607666 31.818C1.2083 34.2452 2.72487 36.3459 4.8397 37.6799L38.8397 57.2999C40.3042 58.1494 41.9667 58.5978 43.6597 58.5999Z" fill="#4285F4"/>
<path d="M77.4594 58.6C79.156 58.6011 80.8226 58.1525 82.2894 57.3L116.289 37.68L92.5894 29L72.5894 40.53C70.7383 41.5952 69.2914 43.2426 68.4741 45.2158C67.6568 47.1889 67.515 49.3769 68.0708 51.439C68.6266 53.5012 69.8487 55.3216 71.5468 56.6168C73.2449 57.912 75.3237 58.6093 77.4594 58.6Z" fill="#FBBC04"/>
<path d="M111.43 38.9999C113.561 39.001 115.632 38.2989 117.324 37.0027C119.015 35.7064 120.231 33.8884 120.783 31.8305C121.336 29.7727 121.194 27.59 120.38 25.621C119.566 23.6519 118.125 22.0065 116.28 20.9399L82.2901 1.29994C80.0676 0.0176229 77.4267 -0.329288 74.9484 0.335529C72.4701 1.00034 70.3574 2.62243 69.0751 4.84494C67.7928 7.06746 67.4459 9.70834 68.1107 12.1866C68.7755 14.6649 70.3976 16.7776 72.6201 18.0599L106.62 37.6799C108.08 38.5334 109.739 38.9886 111.43 38.9999Z" fill="#34A853"/>
<path d="M161.672 105.905L170.408 80.6826H174.818L163.478 111.26H159.908L148.588 80.6826H152.977L161.672 105.905ZM186.831 111.68C183.751 111.68 181.245 110.672 179.312 108.656C177.38 106.626 176.414 103.917 176.414 100.529V99.8145C176.414 97.5604 176.841 95.5513 177.695 93.7872C178.563 92.0091 179.767 90.6231 181.308 89.629C182.862 88.621 184.542 88.1169 186.348 88.1169C189.302 88.1169 191.598 89.09 193.236 91.0361C194.874 92.9822 195.693 95.7683 195.693 99.3945V101.012H180.3C180.356 103.252 181.007 105.065 182.253 106.451C183.513 107.823 185.109 108.509 187.041 108.509C188.413 108.509 189.575 108.229 190.527 107.669C191.479 107.109 192.312 106.367 193.026 105.443L195.399 107.291C193.495 110.217 190.639 111.68 186.831 111.68ZM186.348 91.3091C184.78 91.3091 183.464 91.8831 182.4 93.0312C181.336 94.1652 180.678 95.7613 180.426 97.8194H191.808V97.5254C191.696 95.5513 191.164 94.0252 190.212 92.9472C189.26 91.8551 187.972 91.3091 186.348 91.3091ZM204.43 111.26H200.544V79.0025H204.43V111.26ZM214.888 111.26H211.003V79.0025H214.888V111.26ZM220.096 99.6885C220.096 97.4624 220.53 95.4603 221.398 93.6822C222.28 91.9041 223.499 90.532 225.053 89.566C226.621 88.6 228.406 88.1169 230.408 88.1169C233.502 88.1169 236.001 89.188 237.905 91.3301C239.823 93.4722 240.782 96.3213 240.782 99.8775V100.15C240.782 102.363 240.355 104.351 239.501 106.115C238.661 107.865 237.45 109.23 235.868 110.21C234.3 111.19 232.494 111.68 230.45 111.68C227.37 111.68 224.871 110.609 222.952 108.467C221.048 106.325 220.096 103.49 220.096 99.9615V99.6885ZM224.003 100.15C224.003 102.671 224.584 104.694 225.746 106.22C226.922 107.746 228.49 108.509 230.45 108.509C232.424 108.509 233.992 107.739 235.154 106.199C236.316 104.645 236.897 102.475 236.897 99.6885C236.897 97.1964 236.302 95.1803 235.112 93.6402C233.936 92.0861 232.368 91.3091 230.408 91.3091C228.49 91.3091 226.943 92.0721 225.767 93.5982C224.591 95.1243 224.003 97.3084 224.003 100.15ZM256.638 92.0231C256.05 91.9251 255.413 91.8761 254.727 91.8761C252.179 91.8761 250.45 92.9612 249.54 95.1313V111.26H245.655V88.537H249.435L249.498 91.1621C250.772 89.132 252.578 88.1169 254.916 88.1169C255.672 88.1169 256.246 88.2149 256.638 88.4109V92.0231ZM269.239 111.68C266.158 111.68 263.652 110.672 261.72 108.656C259.788 106.626 258.822 103.917 258.822 100.529V99.8145C258.822 97.5604 259.249 95.5513 260.103 93.7872C260.971 92.0091 262.175 90.6231 263.715 89.629C265.269 88.621 266.95 88.1169 268.756 88.1169C271.71 88.1169 274.006 89.09 275.644 91.0361C277.282 92.9822 278.101 95.7683 278.101 99.3945V101.012H262.707C262.763 103.252 263.414 105.065 264.66 106.451C265.92 107.823 267.517 108.509 269.449 108.509C270.821 108.509 271.983 108.229 272.935 107.669C273.887 107.109 274.72 106.367 275.434 105.443L277.807 107.291C275.903 110.217 273.047 111.68 269.239 111.68ZM268.756 91.3091C267.188 91.3091 265.871 91.8831 264.807 93.0312C263.743 94.1652 263.085 95.7613 262.833 97.8194H274.216V97.5254C274.104 95.5513 273.572 94.0252 272.62 92.9472C271.668 91.8551 270.38 91.3091 268.756 91.3091ZM298.22 111.26H294.188V80.6826H298.22V111.26ZM308.678 88.537L308.804 91.3931C310.541 89.209 312.809 88.1169 315.609 88.1169C320.411 88.1169 322.833 90.8261 322.875 96.2443V111.26H318.99V96.2233C318.976 94.5852 318.598 93.3742 317.856 92.5901C317.128 91.8061 315.987 91.4141 314.433 91.4141C313.173 91.4141 312.067 91.7501 311.115 92.4221C310.163 93.0942 309.42 93.9762 308.888 95.0683V111.26H305.003V88.537H308.678ZM341.965 105.233C341.965 104.183 341.566 103.371 340.768 102.797C339.984 102.209 338.605 101.705 336.631 101.285C334.671 100.865 333.11 100.361 331.948 99.7725C330.799 99.1844 329.945 98.4844 329.385 97.6724C328.839 96.8603 328.566 95.8943 328.566 94.7742C328.566 92.9122 329.35 91.3371 330.919 90.049C332.501 88.761 334.517 88.1169 336.967 88.1169C339.543 88.1169 341.629 88.782 343.225 90.112C344.835 91.4421 345.64 93.1432 345.64 95.2153H341.734C341.734 94.1512 341.279 93.2342 340.369 92.4641C339.473 91.6941 338.339 91.3091 336.967 91.3091C335.553 91.3091 334.447 91.6171 333.649 92.2331C332.851 92.8492 332.452 93.6542 332.452 94.6482C332.452 95.5863 332.823 96.2933 333.565 96.7693C334.307 97.2454 335.644 97.7004 337.576 98.1344C339.522 98.5684 341.097 99.0864 342.301 99.6885C343.505 100.291 344.394 101.019 344.968 101.873C345.556 102.713 345.85 103.742 345.85 104.96C345.85 106.99 345.038 108.621 343.414 109.853C341.79 111.071 339.683 111.68 337.093 111.68C335.273 111.68 333.663 111.358 332.263 110.714C330.863 110.07 329.763 109.174 328.965 108.026C328.181 106.864 327.789 105.611 327.789 104.267H331.675C331.745 105.569 332.263 106.605 333.229 107.375C334.209 108.131 335.497 108.509 337.093 108.509C338.563 108.509 339.739 108.215 340.621 107.627C341.517 107.025 341.965 106.227 341.965 105.233ZM356.183 83.0347V88.537H360.425V91.5401H356.183V105.632C356.183 106.542 356.372 107.228 356.75 107.69C357.128 108.138 357.772 108.362 358.682 108.362C359.13 108.362 359.746 108.278 360.53 108.11V111.26C359.508 111.54 358.514 111.68 357.548 111.68C355.812 111.68 354.503 111.155 353.621 110.105C352.739 109.055 352.297 107.564 352.297 105.632V91.5401H348.16V88.537H352.297V83.0347H356.183ZM369.203 111.26H365.318V88.537H369.203V111.26ZM365.003 82.5097C365.003 81.8796 365.192 81.3476 365.57 80.9136C365.962 80.4796 366.536 80.2626 367.292 80.2626C368.048 80.2626 368.622 80.4796 369.014 80.9136C369.406 81.3476 369.602 81.8796 369.602 82.5097C369.602 83.1397 369.406 83.6647 369.014 84.0847C368.622 84.5048 368.048 84.7148 367.292 84.7148C366.536 84.7148 365.962 84.5048 365.57 84.0847C365.192 83.6647 365.003 83.1397 365.003 82.5097ZM380.712 83.0347V88.537H384.954V91.5401H380.712V105.632C380.712 106.542 380.901 107.228 381.279 107.69C381.657 108.138 382.301 108.362 383.211 108.362C383.659 108.362 384.275 108.278 385.059 108.11V111.26C384.037 111.54 383.043 111.68 382.077 111.68C380.341 111.68 379.032 111.155 378.15 110.105C377.268 109.055 376.827 107.564 376.827 105.632V91.5401H372.689V88.537H376.827V83.0347H380.712ZM403.54 109.013C402.028 110.791 399.809 111.68 396.883 111.68C394.46 111.68 392.612 110.98 391.338 109.58C390.078 108.166 389.441 106.08 389.427 103.322V88.537H393.312V103.217C393.312 106.661 394.712 108.383 397.513 108.383C400.481 108.383 402.455 107.277 403.435 105.065V88.537H407.32V111.26H403.624L403.54 109.013ZM418.514 83.0347V88.537H422.756V91.5401H418.514V105.632C418.514 106.542 418.703 107.228 419.081 107.69C419.459 108.138 420.103 108.362 421.013 108.362C421.461 108.362 422.077 108.278 422.861 108.11V111.26C421.839 111.54 420.845 111.68 419.879 111.68C418.143 111.68 416.833 111.155 415.951 110.105C415.069 109.055 414.628 107.564 414.628 105.632V91.5401H410.491V88.537H414.628V83.0347H418.514ZM436.742 111.68C433.662 111.68 431.156 110.672 429.224 108.656C427.292 106.626 426.326 103.917 426.326 100.529V99.8145C426.326 97.5604 426.753 95.5513 427.607 93.7872C428.475 92.0091 429.679 90.6231 431.219 89.629C432.773 88.621 434.453 88.1169 436.259 88.1169C439.214 88.1169 441.51 89.09 443.148 91.0361C444.786 92.9822 445.605 95.7683 445.605 99.3945V101.012H430.211C430.267 103.252 430.918 105.065 432.164 106.451C433.424 107.823 435.02 108.509 436.952 108.509C438.324 108.509 439.487 108.229 440.439 107.669C441.391 107.109 442.224 106.367 442.938 105.443L445.311 107.291C443.407 110.217 440.551 111.68 436.742 111.68ZM436.259 91.3091C434.691 91.3091 433.375 91.8831 432.311 93.0312C431.247 94.1652 430.589 95.7613 430.337 97.8194H441.72V97.5254C441.608 95.5513 441.076 94.0252 440.124 92.9472C439.172 91.8551 437.883 91.3091 436.259 91.3091ZM459.759 99.6885C459.759 97.4624 460.193 95.4603 461.062 93.6822C461.944 91.9041 463.162 90.532 464.716 89.566C466.284 88.6 468.069 88.1169 470.071 88.1169C473.165 88.1169 475.664 89.188 477.568 91.3301C479.486 93.4722 480.445 96.3213 480.445 99.8775V100.15C480.445 102.363 480.018 104.351 479.164 106.115C478.324 107.865 477.113 109.23 475.531 110.21C473.963 111.19 472.157 111.68 470.113 111.68C467.033 111.68 464.534 110.609 462.616 108.467C460.712 106.325 459.759 103.49 459.759 99.9615V99.6885ZM463.666 100.15C463.666 102.671 464.247 104.694 465.409 106.22C466.585 107.746 468.153 108.509 470.113 108.509C472.087 108.509 473.655 107.739 474.817 106.199C475.979 104.645 476.56 102.475 476.56 99.6885C476.56 97.1964 475.965 95.1803 474.775 93.6402C473.599 92.0861 472.031 91.3091 470.071 91.3091C468.153 91.3091 466.606 92.0721 465.43 93.5982C464.254 95.1243 463.666 97.3084 463.666 100.15ZM487.229 111.26V91.5401H483.638V88.537H487.229V86.2058C487.229 83.7697 487.88 81.8866 489.182 80.5566C490.484 79.2265 492.325 78.5615 494.705 78.5615C495.601 78.5615 496.49 78.6805 497.372 78.9185L497.162 82.0687C496.504 81.9426 495.804 81.8796 495.062 81.8796C493.802 81.8796 492.829 82.2507 492.143 82.9927C491.457 83.7207 491.114 84.7708 491.114 86.1428V88.537H495.965V91.5401H491.114V111.26H487.229ZM531.835 84.0007H522.006V111.26H517.995V84.0007H508.188V80.6826H531.835V84.0007ZM543.091 111.68C540.011 111.68 537.505 110.672 535.573 108.656C533.641 106.626 532.675 103.917 532.675 100.529V99.8145C532.675 97.5604 533.102 95.5513 533.956 93.7872C534.824 92.0091 536.028 90.6231 537.568 89.629C539.122 88.621 540.802 88.1169 542.608 88.1169C545.562 88.1169 547.859 89.09 549.497 91.0361C551.135 92.9822 551.954 95.7683 551.954 99.3945V101.012H536.56C536.616 103.252 537.267 105.065 538.513 106.451C539.773 107.823 541.369 108.509 543.301 108.509C544.673 108.509 545.835 108.229 546.788 107.669C547.74 107.109 548.573 106.367 549.287 105.443L551.66 107.291C549.756 110.217 546.9 111.68 543.091 111.68ZM542.608 91.3091C541.04 91.3091 539.724 91.8831 538.66 93.0312C537.596 94.1652 536.938 95.7613 536.686 97.8194H548.069V97.5254C547.957 95.5513 547.425 94.0252 546.473 92.9472C545.52 91.8551 544.232 91.3091 542.608 91.3091ZM565.583 108.509C566.969 108.509 568.181 108.089 569.217 107.249C570.253 106.409 570.827 105.359 570.939 104.099H574.614C574.544 105.401 574.096 106.64 573.27 107.816C572.444 108.992 571.338 109.93 569.952 110.63C568.58 111.33 567.123 111.68 565.583 111.68C562.489 111.68 560.025 110.651 558.191 108.593C556.371 106.521 555.461 103.693 555.461 100.108V99.4575C555.461 97.2454 555.867 95.2783 556.679 93.5562C557.491 91.8341 558.653 90.497 560.165 89.545C561.691 88.593 563.49 88.1169 565.562 88.1169C568.111 88.1169 570.225 88.88 571.905 90.406C573.599 91.9321 574.502 93.9132 574.614 96.3493H570.939C570.827 94.8792 570.267 93.6752 569.259 92.7371C568.265 91.7851 567.032 91.3091 565.562 91.3091C563.588 91.3091 562.055 92.0231 560.963 93.4512C559.885 94.8652 559.346 96.9163 559.346 99.6045V100.34C559.346 102.958 559.885 104.974 560.963 106.388C562.041 107.802 563.581 108.509 565.583 108.509ZM582.867 91.2881C584.589 89.174 586.829 88.1169 589.588 88.1169C594.39 88.1169 596.812 90.8261 596.854 96.2443V111.26H592.969V96.2233C592.955 94.5852 592.577 93.3742 591.835 92.5901C591.107 91.8061 589.966 91.4141 588.411 91.4141C587.151 91.4141 586.045 91.7501 585.093 92.4221C584.141 93.0942 583.399 93.9762 582.867 95.0683V111.26H578.982V79.0025H582.867V91.2881ZM606.346 88.537L606.472 91.3931C608.208 89.209 610.476 88.1169 613.277 88.1169C618.079 88.1169 620.501 90.8261 620.543 96.2443V111.26H616.658V96.2233C616.644 94.5852 616.266 93.3742 615.524 92.5901C614.796 91.8061 613.655 91.4141 612.101 91.4141C610.841 91.4141 609.734 91.7501 608.782 92.4221C607.83 93.0942 607.088 93.9762 606.556 95.0683V111.26H602.671V88.537H606.346ZM625.373 99.6885C625.373 97.4624 625.807 95.4603 626.675 93.6822C627.557 91.9041 628.775 90.532 630.329 89.566C631.897 88.6 633.683 88.1169 635.685 88.1169C638.779 88.1169 641.278 89.188 643.182 91.3301C645.1 93.4722 646.059 96.3213 646.059 99.8775V100.15C646.059 102.363 645.632 104.351 644.778 106.115C643.938 107.865 642.727 109.23 641.145 110.21C639.577 111.19 637.771 111.68 635.727 111.68C632.647 111.68 630.147 110.609 628.229 108.467C626.325 106.325 625.373 103.49 625.373 99.9615V99.6885ZM629.279 100.15C629.279 102.671 629.86 104.694 631.022 106.22C632.199 107.746 633.767 108.509 635.727 108.509C637.701 108.509 639.269 107.739 640.431 106.199C641.593 104.645 642.174 102.475 642.174 99.6885C642.174 97.1964 641.579 95.1803 640.389 93.6402C639.213 92.0861 637.645 91.3091 635.685 91.3091C633.767 91.3091 632.22 92.0721 631.043 93.5982C629.867 95.1243 629.279 97.3084 629.279 100.15ZM655.153 111.26H651.267V79.0025H655.153V111.26ZM660.361 99.6885C660.361 97.4624 660.795 95.4603 661.663 93.6822C662.545 91.9041 663.763 90.532 665.317 89.566C666.885 88.6 668.67 88.1169 670.672 88.1169C673.766 88.1169 676.266 89.188 678.17 91.3301C680.088 93.4722 681.047 96.3213 681.047 99.8775V100.15C681.047 102.363 680.62 104.351 679.766 106.115C678.926 107.865 677.715 109.23 676.133 110.21C674.564 111.19 672.758 111.68 670.714 111.68C667.634 111.68 665.135 110.609 663.217 108.467C661.313 106.325 660.361 103.49 660.361 99.9615V99.6885ZM664.267 100.15C664.267 102.671 664.848 104.694 666.01 106.22C667.186 107.746 668.754 108.509 670.714 108.509C672.688 108.509 674.256 107.739 675.418 106.199C676.581 104.645 677.162 102.475 677.162 99.6885C677.162 97.1964 676.567 95.1803 675.376 93.6402C674.2 92.0861 672.632 91.3091 670.672 91.3091C668.754 91.3091 667.207 92.0721 666.031 93.5982C664.855 95.1243 664.267 97.3084 664.267 100.15ZM684.995 99.7095C684.995 96.1673 685.814 93.3532 687.452 91.2671C689.09 89.167 691.26 88.1169 693.962 88.1169C696.735 88.1169 698.898 89.097 700.452 91.0571L700.641 88.537H704.19V110.714C704.19 113.654 703.315 115.971 701.565 117.665C699.829 119.359 697.491 120.206 694.55 120.206C692.912 120.206 691.309 119.856 689.741 119.156C688.173 118.456 686.976 117.497 686.15 116.279L688.166 113.948C689.832 116.006 691.869 117.035 694.277 117.035C696.167 117.035 697.638 116.503 698.688 115.439C699.752 114.375 700.284 112.877 700.284 110.945V108.992C698.73 110.784 696.609 111.68 693.92 111.68C691.26 111.68 689.104 110.609 687.452 108.467C685.814 106.325 684.995 103.406 684.995 99.7095ZM688.901 100.15C688.901 102.713 689.426 104.729 690.476 106.199C691.526 107.655 692.996 108.383 694.886 108.383C697.337 108.383 699.136 107.27 700.284 105.044V94.6692C699.094 92.4991 697.309 91.4141 694.928 91.4141C693.038 91.4141 691.561 92.1491 690.497 93.6192C689.433 95.0893 688.901 97.2664 688.901 100.15ZM717.504 105.569L722.797 88.537H726.955L717.82 114.767C716.405 118.547 714.158 120.437 711.078 120.437L710.343 120.374L708.894 120.101V116.951L709.944 117.035C711.26 117.035 712.282 116.769 713.01 116.237C713.752 115.705 714.361 114.732 714.837 113.318L715.698 111.008L707.592 88.537H711.834L717.504 105.569Z" fill="#656C73"/>
</g>
<defs>
<clipPath id="clip0">
<rect width="1018.85" height="125.02" fill="white"/>
</clipPath>
</defs>
</svg>
