<svg width="27" height="23" viewBox="0 0 27 23" fill="none" xmlns="http://www.w3.org/2000/svg">
<path d="M4.46667 0C3.28203 0 2.14592 0.470594 1.30826 1.30826C0.470594 2.14592 0 3.28203 0 4.46667V4.91557L13.4 12.1315L26.8 4.9178V4.46667C26.8 3.28203 26.3294 2.14592 25.4917 1.30826C24.6541 0.470594 23.518 0 22.3333 0H4.46667Z" fill="#F0B501"/>
<path d="M26.8 7.45264L13.9293 14.3827C13.7666 14.4702 13.5848 14.5161 13.4 14.5161C13.2152 14.5161 13.0334 14.4702 12.8707 14.3827L0 7.45264V17.8667C0 19.0513 0.470594 20.1874 1.30826 21.0251C2.14592 21.8627 3.28203 22.3333 4.46667 22.3333H22.3333C23.518 22.3333 24.6541 21.8627 25.4917 21.0251C26.3294 20.1874 26.8 19.0513 26.8 17.8667V7.45264Z" fill="#F0B501"/>
</svg>
