<svg id="Gmail" xmlns="http://www.w3.org/2000/svg" width="48" height="48" viewBox="0 0 48 48">
  <path id="Path_18" data-name="Path 18" d="M0,24A24,24,0,1,1,24,48,24,24,0,0,1,0,24Z" fill="#fff"/>
  <path id="Path_19" data-name="Path 19" d="M34.47,33.23H13.5a1.5,1.5,0,0,1-1.5-1.5V16.583a1.5,1.5,0,0,1,1.5-1.5H34.47a1.5,1.5,0,0,1,1.5,1.5V31.732A1.489,1.489,0,0,1,34.47,33.23Z" fill="#e3e3e3"/>
  <path id="Path_20" data-name="Path 20" d="M15,33.23l8.965-7.211.064-.385L14.785,18.98l-.021,13.929Z" fill="#231f20" opacity="0.1"/>
  <path id="Path_21" data-name="Path 21" d="M13.5,33.23a1.489,1.489,0,0,1-1.5-1.5V16.562c0-.834.663-.984,1.5-.984s1.5.171,1.5.984V33.23Z" fill="#d54b3d"/>
  <path id="Path_22" data-name="Path 22" d="M13.5,15.792c1.07,0,1.284.321,1.284.77V33.016H13.5a1.288,1.288,0,0,1-1.284-1.284V16.562C12.217,16.091,12.431,15.792,13.5,15.792Zm0-.214c-.835,0-1.5.171-1.5.984v15.17a1.489,1.489,0,0,0,1.5,1.5H15V16.562C15,15.727,14.335,15.578,13.5,15.578Z" fill="#d72b27"/>
  <path id="Path_23" data-name="Path 23" d="M34.47,33.23h-1.5V16.519c0-.834.663-.941,1.5-.941s1.5.107,1.5.941V31.754A1.484,1.484,0,0,1,34.47,33.23Z" fill="#d54b3d"/>
  <path id="Path_24" data-name="Path 24" d="M34.47,15.792c.963,0,1.284.192,1.284.727V31.754a1.288,1.288,0,0,1-1.284,1.284H33.186V16.519C33.186,15.963,33.507,15.792,34.47,15.792Zm0-.214c-.834,0-1.5.107-1.5.941V33.251h1.5a1.489,1.489,0,0,0,1.5-1.5V16.519C35.967,15.685,35.3,15.578,34.47,15.578Z" fill="#d72b27"/>
  <path id="Path_25" data-name="Path 25" d="M23.964,26.019,12.645,17.8a1.512,1.512,0,0,1-.364-2.1,1.552,1.552,0,0,1,2.14-.321l9.564,6.954,9.628-7.04a1.5,1.5,0,1,1,1.755,2.439Z" fill="#d54b3d"/>
  <path id="Path_26" data-name="Path 26" d="M34.47,15.214a1.293,1.293,0,0,1,.77,2.332L23.964,25.763l-11.19-8.131a1.306,1.306,0,0,1-.321-1.8,1.347,1.347,0,0,1,1.07-.535,1.237,1.237,0,0,1,.77.257l9.543,6.933.128.086.128-.086,9.607-7.04A1.418,1.418,0,0,1,34.47,15.214Zm0-.214a1.473,1.473,0,0,0-.877.278l-9.628,7.039L14.4,15.364a1.492,1.492,0,0,0-.9-.278,1.483,1.483,0,0,0-.856,2.717l11.319,8.238,11.383-8.3a1.524,1.524,0,0,0,.342-2.1A1.466,1.466,0,0,0,34.47,15Z" fill="#d72b27"/>
</svg>
