<svg id="Instagram" xmlns="http://www.w3.org/2000/svg" xmlns:xlink="http://www.w3.org/1999/xlink" width="48" height="48" viewBox="0 0 48 48">
  <defs>
    <linearGradient id="linear-gradient" x1="0.5" x2="0.5" y2="1" gradientUnits="objectBoundingBox">
      <stop offset="0" stop-color="#c13db7"/>
      <stop offset="1" stop-color="#fdda47"/>
    </linearGradient>
  </defs>
  <path id="Path_27" data-name="Path 27" d="M0,24A24,24,0,1,1,24,48,24,24,0,0,1,0,24Z" fill="#fff"/>
  <g id="Group_13" data-name="Group 13">
    <path id="Path_28" data-name="Path 28" d="M24,11.2c-3.476,0-3.913.015-5.278.077a9.392,9.392,0,0,0-3.107.595,6.548,6.548,0,0,0-3.745,3.743,9.35,9.35,0,0,0-.595,3.107c-.061,1.365-.077,1.8-.077,5.278s.016,3.911.077,5.277a9.407,9.407,0,0,0,.595,3.107,6.55,6.55,0,0,0,3.743,3.745,9.4,9.4,0,0,0,3.107.595c1.365.062,1.8.077,5.277.077s3.912-.015,5.277-.077a9.409,9.409,0,0,0,3.108-.595,6.558,6.558,0,0,0,3.743-3.745,9.486,9.486,0,0,0,.595-3.107c.061-1.365.077-1.8.077-5.277s-.016-3.913-.077-5.278a9.482,9.482,0,0,0-.595-3.107,6.549,6.549,0,0,0-3.744-3.744,9.422,9.422,0,0,0-3.109-.595c-1.365-.062-1.8-.077-5.277-.077Zm-.427,2.307H24c3.418,0,3.823.012,5.172.074a7.088,7.088,0,0,1,2.377.441,4.242,4.242,0,0,1,2.429,2.429,7.073,7.073,0,0,1,.441,2.376c.061,1.349.075,1.755.075,5.171s-.013,3.821-.075,5.171a7.081,7.081,0,0,1-.441,2.376,4.245,4.245,0,0,1-2.429,2.428,7.06,7.06,0,0,1-2.377.441c-1.349.061-1.755.075-5.172.075s-3.823-.013-5.172-.075a7.1,7.1,0,0,1-2.377-.441,4.241,4.241,0,0,1-2.43-2.429,7.072,7.072,0,0,1-.441-2.376c-.061-1.349-.074-1.755-.074-5.173s.012-3.821.074-5.171a7.085,7.085,0,0,1,.441-2.377,4.242,4.242,0,0,1,2.43-2.43,7.072,7.072,0,0,1,2.377-.441c1.181-.053,1.638-.069,4.024-.072v0ZM29.3,17.167a1.536,1.536,0,0,1,1.536-1.535h0A1.536,1.536,0,1,1,29.3,17.167Zm-5.3.259A6.573,6.573,0,1,0,30.573,24,6.574,6.574,0,0,0,24,17.427ZM28.268,24A4.267,4.267,0,1,0,24,28.267,4.267,4.267,0,0,0,28.268,24Z" fill-rule="evenodd" fill="url(#linear-gradient)"/>
  </g>
</svg>
