<svg width="27" height="27" viewBox="0 0 27 27" fill="none" xmlns="http://www.w3.org/2000/svg">
<path d="M13.269 8.8463C10.8318 8.8463 8.84298 10.8352 8.84298 13.2723C8.84298 15.7094 10.8318 17.6983 13.269 17.6983C15.7061 17.6983 17.6949 15.7094 17.6949 13.2723C17.6949 10.8352 15.7061 8.8463 13.269 8.8463ZM26.5436 13.2723C26.5436 11.4395 26.5602 9.62325 26.4572 7.79376C26.3543 5.66876 25.8695 3.78282 24.3156 2.22892C22.7584 0.67169 20.8758 0.190245 18.7508 0.0873157C16.918 -0.015614 15.1018 0.000987608 13.2723 0.000987608C11.4395 0.000987608 9.62325 -0.015614 7.79376 0.0873157C5.66876 0.190245 3.78282 0.675011 2.22892 2.22892C0.671691 3.78614 0.190245 5.66876 0.0873157 7.79376C-0.015614 9.62657 0.000987608 11.4428 0.000987608 13.2723C0.000987608 15.1018 -0.015614 16.9213 0.0873157 18.7508C0.190245 20.8758 0.675011 22.7617 2.22892 24.3156C3.78614 25.8729 5.66876 26.3543 7.79376 26.4572C9.62657 26.5602 11.4428 26.5436 13.2723 26.5436C15.1051 26.5436 16.9213 26.5602 18.7508 26.4572C20.8758 26.3543 22.7617 25.8695 24.3156 24.3156C25.8729 22.7584 26.3543 20.8758 26.4572 18.7508C26.5635 16.9213 26.5436 15.1051 26.5436 13.2723V13.2723ZM13.269 20.0822C9.5004 20.0822 6.459 17.0408 6.459 13.2723C6.459 9.50372 9.5004 6.46232 13.269 6.46232C17.0375 6.46232 20.0789 9.50372 20.0789 13.2723C20.0789 17.0408 17.0375 20.0822 13.269 20.0822ZM20.3578 7.77384C19.4779 7.77384 18.7674 7.06329 18.7674 6.18341C18.7674 5.30353 19.4779 4.59298 20.3578 4.59298C21.2377 4.59298 21.9483 5.30353 21.9483 6.18341C21.9485 6.39234 21.9076 6.59927 21.8277 6.79235C21.7479 6.98543 21.6307 7.16086 21.483 7.3086C21.3353 7.45634 21.1598 7.57348 20.9668 7.65331C20.7737 7.73314 20.5668 7.7741 20.3578 7.77384V7.77384Z" fill="#E43E2B"/>
</svg>
