<svg id="LinkedIN" xmlns="http://www.w3.org/2000/svg" width="48" height="48" viewBox="0 0 48 48">
  <path id="Path_29" data-name="Path 29" d="M0,24A24,24,0,1,1,24,48,24,24,0,0,1,0,24Z" fill="#0077b5"/>
  <path id="Path_30" data-name="Path 30" d="M17.319,14.823a2.837,2.837,0,0,1-3.078,2.825h-.035A2.832,2.832,0,1,1,14.277,12,2.825,2.825,0,0,1,17.319,14.823Zm-.358,5.055V36.22H11.522V19.878ZM36.575,36.22V26.85c0-5.019-2.683-7.356-6.262-7.356a5.4,5.4,0,0,0-4.9,2.7V19.878h-5.44c.072,1.533,0,16.342,0,16.342h5.44V27.093a3.715,3.715,0,0,1,.179-1.325,2.976,2.976,0,0,1,2.791-1.986c1.969,0,2.756,1.5,2.756,3.694V36.22Z" fill="#fff" fill-rule="evenodd"/>
</svg>
