<svg id="Medium" xmlns="http://www.w3.org/2000/svg" width="48" height="48" viewBox="0 0 48 48">
  <path id="Path_31" data-name="Path 31" d="M24,48A24,24,0,1,0,0,24,24,24,0,0,0,24,48Z" fill="#12100e" fill-rule="evenodd"/>
  <path id="Path_32" data-name="Path 32" d="M11.795,16.3a1.285,1.285,0,0,0-.4-1.07L8.4,11.55V11h9.277l7.171,16.1,6.3-16.1H40v.55l-2.555,2.507a.773.773,0,0,0-.284.734V33.209a.773.773,0,0,0,.284.734L39.94,36.45V37H27.391v-.55l2.585-2.568c.254-.26.254-.336.254-.734V18.26L23.044,36.939h-.971L13.707,18.26V30.779a1.753,1.753,0,0,0,.463,1.437l3.361,4.173v.55H8v-.55l3.361-4.173a1.691,1.691,0,0,0,.433-1.437Z" fill="#fff"/>
</svg>
