<svg id="Twitter" xmlns="http://www.w3.org/2000/svg" width="48" height="48" viewBox="0 0 48 48">
  <path id="Path_33" data-name="Path 33" d="M0,24A24,24,0,1,1,24,48,24,24,0,0,1,0,24Z" fill="#55acee"/>
  <path id="Path_34" data-name="Path 34" d="M23.281,19.507l.05.83-.839-.1A13.654,13.654,0,0,1,14.5,16.3l-1.108-1.1-.285.813a4.891,4.891,0,0,0,1.041,5.017c.672.712.52.814-.638.39a1.981,1.981,0,0,0-.789-.187,6.074,6.074,0,0,0,.6,2.271,5.421,5.421,0,0,0,2.3,2.169l.823.39-.974.017c-.94,0-.974.017-.873.373a5.075,5.075,0,0,0,3.139,2.78l1.041.356-.907.542a9.451,9.451,0,0,1-4.5,1.254A4.97,4.97,0,0,0,12,31.524a12.769,12.769,0,0,0,3.24,1.491,14.18,14.18,0,0,0,11.013-1.254,14.738,14.738,0,0,0,5.59-6.576A17.481,17.481,0,0,0,32.984,20.1c0-.78.05-.881.99-1.813a11.088,11.088,0,0,0,1.175-1.305c.168-.322.151-.322-.705-.034-1.427.508-1.628.441-.923-.322a4.931,4.931,0,0,0,1.142-1.814c0-.051-.252.034-.537.186a9.364,9.364,0,0,1-1.477.576l-.907.288L30.92,15.3a6.831,6.831,0,0,0-1.427-.746,5.734,5.734,0,0,0-2.938.068A4.852,4.852,0,0,0,23.281,19.507Z" fill="#fff"/>
</svg>
