<svg width="27" height="27" viewBox="0 0 27 27" fill="none" xmlns="http://www.w3.org/2000/svg">
<path d="M13.125 0C5.87695 0 0 5.87695 0 13.125C0 20.373 5.87695 26.25 13.125 26.25C20.373 26.25 26.25 20.373 26.25 13.125C26.25 5.87695 20.373 0 13.125 0ZM19.4326 9.89356C19.4414 10.0313 19.4414 10.1748 19.4414 10.3154C19.4414 14.6162 16.166 19.5703 10.1807 19.5703C8.33496 19.5703 6.62402 19.0342 5.18262 18.1113C5.44629 18.1406 5.69824 18.1523 5.96777 18.1523C7.49121 18.1523 8.8916 17.6367 10.0078 16.7637C8.57813 16.7344 7.37695 15.7969 6.9668 14.5078C7.46777 14.5811 7.91895 14.5811 8.43457 14.4492C7.69842 14.2997 7.03674 13.8999 6.56196 13.3177C6.08718 12.7356 5.82857 12.0071 5.83008 11.2559V11.2148C6.26074 11.458 6.76758 11.6074 7.29785 11.6279C6.85208 11.3308 6.4865 10.9284 6.23353 10.4561C5.98056 9.98393 5.84802 9.4566 5.84766 8.9209C5.84766 8.31445 6.00586 7.76074 6.29004 7.28027C7.10714 8.28614 8.12675 9.10881 9.28261 9.69482C10.4385 10.2808 11.7047 10.6171 12.999 10.6816C12.5391 8.46973 14.1914 6.67969 16.1777 6.67969C17.1152 6.67969 17.959 7.07227 18.5537 7.70508C19.2891 7.56738 19.9922 7.29199 20.6191 6.92285C20.376 7.67578 19.8662 8.31152 19.1895 8.71289C19.8457 8.64258 20.4785 8.46094 21.0645 8.20605C20.6221 8.85645 20.0684 9.43359 19.4326 9.89356V9.89356Z" fill="#3B7DED"/>
</svg>
