<svg id="Youtube" xmlns="http://www.w3.org/2000/svg" width="48" height="48" viewBox="0 0 48 48">
  <path id="Path_35" data-name="Path 35" d="M0,24A24,24,0,1,1,24,48,24,24,0,0,1,0,24Z" fill="red"/>
  <path id="Path_36" data-name="Path 36" d="M36.265,18.073A3.25,3.25,0,0,0,34,15.749c-2-.549-10-.549-10-.549s-8.005,0-10,.549a3.25,3.25,0,0,0-2.263,2.324A35.111,35.111,0,0,0,11.2,24.4a35.112,35.112,0,0,0,.535,6.327A3.25,3.25,0,0,0,14,33.051c2,.549,10,.549,10,.549s8.005,0,10-.549a3.25,3.25,0,0,0,2.263-2.324A35.1,35.1,0,0,0,36.8,24.4,35.1,35.1,0,0,0,36.265,18.073Z" fill="#fff"/>
  <path id="Path_37" data-name="Path 37" d="M21.6,28.8v-8l6.4,4Z" fill="red"/>
</svg>
